<?xml version="1.0" standalone="no"?>
<!DOCTYPE svg PUBLIC "-//W3C//DTD SVG 20010904//EN"
 "http://www.w3.org/TR/2001/REC-SVG-20010904/DTD/svg10.dtd">
<svg version="1.0" xmlns="http://www.w3.org/2000/svg"
 width="500.000000pt" height="500.000000pt" viewBox="0 0 500.000000 500.000000"
 preserveAspectRatio="xMidYMid meet">
<metadata>
Created by potrace 1.11, written by Peter Selinger 2001-2013
</metadata>
<g transform="translate(0.000000,500.000000) scale(0.100000,-0.100000)"
fill="#000000" stroke="none">
<path d="M3100 4834 c-81 -22 -134 -57 -240 -159 -127 -121 -146 -132 -260
-149 -19 -3 -44 -7 -55 -9 -11 -3 -38 -7 -60 -11 -22 -4 -87 -19 -145 -33
-124 -30 -94 -37 -372 88 -254 114 -316 137 -423 155 -159 26 -290 -30 -382
-164 -66 -97 -88 -192 -72 -312 11 -76 29 -127 101 -292 l61 -138 -21 -72
c-33 -111 -37 -143 -36 -268 2 -128 27 -223 84 -320 17 -28 30 -53 30 -54 0
-2 33 -57 74 -123 69 -111 141 -251 134 -258 -2 -2 -37 -6 -78 -9 -197 -15
-327 -61 -411 -147 -155 -158 -135 -449 57 -831 25 -51 64 -121 86 -157 l39
-65 -33 -30 c-123 -113 -156 -267 -98 -451 30 -94 145 -325 163 -325 4 0 7 -5
7 -11 0 -6 19 -38 43 -71 47 -66 148 -200 157 -208 5 -5 72 -87 95 -117 6 -7
35 -15 65 -19 30 -3 66 -7 80 -10 21 -3 167 -20 340 -39 120 -13 264 -19 465
-19 192 -1 387 8 404 18 3 2 29 6 56 10 71 9 98 14 202 42 293 78 511 232 649
459 68 112 144 308 168 435 3 14 10 50 16 80 6 30 13 78 16 105 3 28 7 59 9
71 17 81 23 484 14 864 -2 69 1 170 6 225 11 119 13 750 2 850 -4 39 -10 95
-13 125 -3 30 -7 66 -9 80 -2 14 -7 43 -10 65 -3 23 -7 52 -10 65 -3 13 -7 42
-11 64 -3 22 -7 43 -9 47 -2 3 -7 21 -10 40 -8 43 -51 199 -72 259 -120 347
-311 608 -524 716 -40 20 -62 24 -131 23 -46 0 -108 -7 -138 -15z"/>
</g>
</svg>
